<svg width="258" height="31" viewBox="0 0 258 31" fill="none" xmlns="http://www.w3.org/2000/svg">
<path d="M0.192623 11.48C0.192623 10.0933 0.437956 8.728 0.928623 7.384C1.44062 6.04 2.17662 4.824 3.13662 3.736C4.09662 2.648 5.26996 1.784 6.65662 1.144C8.04329 0.482665 9.62196 0.151999 11.3926 0.151999C13.462 0.151999 15.2646 0.610666 16.8006 1.528C18.3366 2.44533 19.478 3.64 20.2246 5.112L16.8326 7.448C16.4486 6.59467 15.9473 5.92267 15.3286 5.432C14.71 4.94133 14.038 4.58933 13.3126 4.376C12.6086 4.16267 11.926 4.056 11.2646 4.056C10.1553 4.056 9.18462 4.28 8.35262 4.728C7.54196 5.176 6.85929 5.76267 6.30462 6.488C5.74996 7.21333 5.33396 8.024 5.05662 8.92C4.80062 9.816 4.67262 10.712 4.67262 11.608C4.67262 12.952 4.94996 14.2107 5.50462 15.384C6.05929 16.536 6.83796 17.4747 7.84062 18.2C8.84329 18.9253 10.006 19.288 11.3286 19.288C12.0113 19.288 12.7153 19.1707 13.4406 18.936C14.1873 18.7013 14.87 18.328 15.4886 17.816C16.1073 17.304 16.5873 16.6427 16.9286 15.832L20.5446 17.912C20.0753 19.0427 19.3393 20.0027 18.3366 20.792C17.334 21.56 16.2033 22.1573 14.9446 22.584C13.686 22.9893 12.438 23.192 11.2006 23.192C9.57929 23.192 8.09662 22.8613 6.75262 22.2C5.42996 21.5173 4.27796 20.6213 3.29662 19.512C2.31529 18.3813 1.54729 17.1227 0.992623 15.736C0.459289 14.328 0.192623 12.9093 0.192623 11.48ZM33.0116 23.32C31.177 23.32 29.5983 22.9253 28.2756 22.136C26.9743 21.3253 25.9716 20.2587 25.2676 18.936C24.5636 17.6133 24.2116 16.184 24.2116 14.648C24.2116 13.0907 24.5636 11.6507 25.2676 10.328C25.993 9.00533 27.0063 7.94933 28.3076 7.16C29.6303 6.34933 31.1983 5.944 33.0116 5.944C34.825 5.944 36.3823 6.34933 37.6836 7.16C39.0063 7.94933 40.0196 9.00533 40.7236 10.328C41.4276 11.6507 41.7796 13.0907 41.7796 14.648C41.7796 16.184 41.4276 17.6133 40.7236 18.936C40.0196 20.2587 39.0063 21.3253 37.6836 22.136C36.3823 22.9253 34.825 23.32 33.0116 23.32ZM28.6276 14.648C28.6276 15.6293 28.8196 16.504 29.2036 17.272C29.5876 18.0187 30.1103 18.6053 30.7716 19.032C31.433 19.4587 32.1796 19.672 33.0116 19.672C33.8223 19.672 34.5583 19.4587 35.2196 19.032C35.881 18.584 36.4036 17.9867 36.7876 17.24C37.193 16.472 37.3956 15.5973 37.3956 14.616C37.3956 13.656 37.193 12.8027 36.7876 12.056C36.4036 11.288 35.881 10.6907 35.2196 10.264C34.5583 9.816 33.8223 9.592 33.0116 9.592C32.1796 9.592 31.433 9.816 30.7716 10.264C30.1103 10.6907 29.5876 11.288 29.2036 12.056C28.8196 12.8027 28.6276 13.6667 28.6276 14.648ZM62.4979 23H58.2099V13.592C58.2099 12.248 57.9752 11.2667 57.5059 10.648C57.0365 10.0293 56.3859 9.72 55.5539 9.72C54.9779 9.72 54.3912 9.86933 53.7939 10.168C53.2179 10.4667 52.6952 10.8827 52.2259 11.416C51.7565 11.928 51.4152 12.5253 51.2019 13.208V23H46.9139V6.232H50.7859V9.336C51.4045 8.29067 52.3005 7.46933 53.4739 6.872C54.6472 6.25333 55.9699 5.944 57.4419 5.944C58.4872 5.944 59.3405 6.136 60.0019 6.52C60.6632 6.88267 61.1752 7.384 61.5379 8.024C61.9005 8.64267 62.1459 9.34667 62.2739 10.136C62.4232 10.9253 62.4979 11.7253 62.4979 12.536V23ZM78.4206 22.136C77.8446 22.392 77.13 22.648 76.2766 22.904C75.4446 23.16 74.5806 23.288 73.6846 23.288C72.8953 23.288 72.17 23.1493 71.5086 22.872C70.8473 22.5947 70.314 22.1573 69.9086 21.56C69.5246 20.9413 69.3326 20.1413 69.3326 19.16V9.528H67.1246V6.232H69.3326V0.792H73.6206V6.232H77.1406V9.528H73.6206V17.72C73.6206 18.296 73.77 18.712 74.0686 18.968C74.3886 19.224 74.7726 19.352 75.2206 19.352C75.6686 19.352 76.106 19.2773 76.5326 19.128C76.9593 18.9787 77.3006 18.8507 77.5566 18.744L78.4206 22.136ZM90.4511 23.32C88.6378 23.32 87.0698 22.9253 85.7471 22.136C84.4458 21.3467 83.4325 20.3013 82.7071 19C81.9818 17.6773 81.6191 16.248 81.6191 14.712C81.6191 13.1333 81.9711 11.6827 82.6751 10.36C83.4005 9.016 84.4245 7.94933 85.7471 7.16C87.0698 6.34933 88.6485 5.944 90.4831 5.944C92.3178 5.944 93.8858 6.34933 95.1871 7.16C96.4885 7.94933 97.4805 9.00533 98.1631 10.328C98.8671 11.6293 99.2191 13.0373 99.2191 14.552C99.2191 15.1067 99.1871 15.5867 99.1231 15.992H86.1631C86.2698 17.2933 86.7498 18.3173 87.6031 19.064C88.4778 19.8107 89.4805 20.184 90.6111 20.184C91.4645 20.184 92.2645 19.9813 93.0111 19.576C93.7791 19.1493 94.3018 18.5947 94.5791 17.912L98.2591 18.936C97.6405 20.216 96.6485 21.272 95.2831 22.104C93.9178 22.9147 92.3071 23.32 90.4511 23.32ZM86.0671 13.272H94.8351C94.7071 12.0133 94.2271 11 93.3951 10.232C92.5845 9.44267 91.5925 9.048 90.4191 9.048C89.2671 9.048 88.2751 9.44267 87.4431 10.232C86.6325 11 86.1738 12.0133 86.0671 13.272ZM110.247 23.32C108.818 23.32 107.453 23.0853 106.151 22.616C104.85 22.1467 103.73 21.4533 102.791 20.536L104.327 17.752C105.33 18.5627 106.311 19.16 107.271 19.544C108.231 19.928 109.17 20.12 110.087 20.12C110.919 20.12 111.581 19.9707 112.071 19.672C112.583 19.3733 112.839 18.9253 112.839 18.328C112.839 17.7093 112.53 17.2933 111.911 17.08C111.293 16.8453 110.429 16.5573 109.319 16.216C108.082 15.832 107.047 15.4373 106.215 15.032C105.383 14.6267 104.754 14.136 104.327 13.56C103.922 12.984 103.719 12.2373 103.719 11.32C103.719 9.67733 104.338 8.36533 105.575 7.384C106.813 6.40267 108.455 5.912 110.503 5.912C111.698 5.912 112.829 6.104 113.895 6.488C114.962 6.85067 115.933 7.448 116.807 8.28L115.079 11C113.437 9.72 111.847 9.08 110.311 9.08C109.629 9.08 109.021 9.208 108.487 9.464C107.975 9.72 107.719 10.168 107.719 10.808C107.719 11.4053 107.965 11.832 108.455 12.088C108.967 12.344 109.735 12.6213 110.759 12.92C112.082 13.3253 113.202 13.72 114.119 14.104C115.058 14.488 115.762 14.9787 116.231 15.576C116.722 16.1733 116.967 16.984 116.967 18.008C116.967 19.672 116.359 20.9733 115.143 21.912C113.927 22.8507 112.295 23.32 110.247 23.32ZM132.078 22.136C131.502 22.392 130.787 22.648 129.934 22.904C129.102 23.16 128.238 23.288 127.342 23.288C126.553 23.288 125.827 23.1493 125.166 22.872C124.505 22.5947 123.971 22.1573 123.566 21.56C123.182 20.9413 122.99 20.1413 122.99 19.16V9.528H120.782V6.232H122.99V0.792H127.278V6.232H130.798V9.528H127.278V17.72C127.278 18.296 127.427 18.712 127.726 18.968C128.046 19.224 128.43 19.352 128.878 19.352C129.326 19.352 129.763 19.2773 130.19 19.128C130.617 18.9787 130.958 18.8507 131.214 18.744L132.078 22.136ZM150.503 6.232C150.311 6.01867 149.906 5.74133 149.287 5.4C148.669 5.03733 147.922 4.71733 147.047 4.44C146.194 4.14133 145.309 3.992 144.391 3.992C141.981 3.992 140.775 4.84533 140.775 6.552C140.775 7.17067 140.967 7.66133 141.351 8.024C141.735 8.38667 142.311 8.696 143.079 8.952C143.847 9.208 144.807 9.48533 145.959 9.784C147.453 10.168 148.743 10.616 149.831 11.128C150.941 11.64 151.783 12.3227 152.359 13.176C152.957 14.008 153.255 15.1173 153.255 16.504C153.255 18.1253 152.861 19.4373 152.071 20.44C151.303 21.4213 150.279 22.136 148.999 22.584C147.719 23.032 146.333 23.256 144.839 23.256C143.133 23.256 141.437 23 139.751 22.488C138.087 21.9547 136.605 21.2293 135.303 20.312L137.255 16.504C137.447 16.696 137.789 16.952 138.279 17.272C138.77 17.5707 139.367 17.88 140.071 18.2C140.775 18.4987 141.543 18.7547 142.375 18.968C143.207 19.1813 144.05 19.288 144.903 19.288C147.335 19.288 148.551 18.5093 148.551 16.952C148.551 16.2907 148.306 15.7573 147.815 15.352C147.325 14.9467 146.631 14.6053 145.735 14.328C144.861 14.0507 143.837 13.7413 142.663 13.4C141.213 12.9947 140.007 12.5467 139.047 12.056C138.109 11.544 137.405 10.9147 136.935 10.168C136.466 9.4 136.231 8.42933 136.231 7.256C136.231 5.69867 136.594 4.39733 137.319 3.352C138.066 2.28533 139.069 1.48533 140.327 0.952C141.586 0.397333 142.983 0.119999 144.519 0.119999C146.098 0.119999 147.57 0.375999 148.935 0.887999C150.301 1.4 151.474 1.98667 152.455 2.648L150.503 6.232ZM158.237 26.264C159.026 26.4773 159.666 26.584 160.157 26.584C160.733 26.584 161.192 26.3387 161.533 25.848C161.896 25.3787 162.301 24.4293 162.749 23L156.125 6.232H160.573L165.085 18.616L169.053 6.232H173.149L166.109 26.328C165.725 27.48 165.032 28.4293 164.029 29.176C163.048 29.944 161.832 30.328 160.381 30.328C159.677 30.328 158.962 30.2107 158.237 29.976V26.264ZM183.489 23.32C182.059 23.32 180.694 23.0853 179.393 22.616C178.091 22.1467 176.971 21.4533 176.033 20.536L177.569 17.752C178.571 18.5627 179.553 19.16 180.513 19.544C181.473 19.928 182.411 20.12 183.329 20.12C184.161 20.12 184.822 19.9707 185.313 19.672C185.825 19.3733 186.081 18.9253 186.081 18.328C186.081 17.7093 185.771 17.2933 185.153 17.08C184.534 16.8453 183.67 16.5573 182.561 16.216C181.323 15.832 180.289 15.4373 179.457 15.032C178.625 14.6267 177.995 14.136 177.569 13.56C177.163 12.984 176.961 12.2373 176.961 11.32C176.961 9.67733 177.579 8.36533 178.817 7.384C180.054 6.40267 181.697 5.912 183.745 5.912C184.939 5.912 186.07 6.104 187.137 6.488C188.203 6.85067 189.174 7.448 190.049 8.28L188.321 11C186.678 9.72 185.089 9.08 183.553 9.08C182.87 9.08 182.262 9.208 181.729 9.464C181.217 9.72 180.961 10.168 180.961 10.808C180.961 11.4053 181.206 11.832 181.697 12.088C182.209 12.344 182.977 12.6213 184.001 12.92C185.323 13.3253 186.443 13.72 187.361 14.104C188.299 14.488 189.003 14.9787 189.473 15.576C189.963 16.1733 190.209 16.984 190.209 18.008C190.209 19.672 189.601 20.9733 188.385 21.912C187.169 22.8507 185.537 23.32 183.489 23.32ZM205.319 22.136C204.743 22.392 204.029 22.648 203.175 22.904C202.343 23.16 201.479 23.288 200.583 23.288C199.794 23.288 199.069 23.1493 198.407 22.872C197.746 22.5947 197.213 22.1573 196.807 21.56C196.423 20.9413 196.231 20.1413 196.231 19.16V9.528H194.023V6.232H196.231V0.792H200.519V6.232H204.039V9.528H200.519V17.72C200.519 18.296 200.669 18.712 200.967 18.968C201.287 19.224 201.671 19.352 202.119 19.352C202.567 19.352 203.005 19.2773 203.431 19.128C203.858 18.9787 204.199 18.8507 204.455 18.744L205.319 22.136ZM217.35 23.32C215.537 23.32 213.969 22.9253 212.646 22.136C211.345 21.3467 210.331 20.3013 209.606 19C208.881 17.6773 208.518 16.248 208.518 14.712C208.518 13.1333 208.87 11.6827 209.574 10.36C210.299 9.016 211.323 7.94933 212.646 7.16C213.969 6.34933 215.547 5.944 217.382 5.944C219.217 5.944 220.785 6.34933 222.086 7.16C223.387 7.94933 224.379 9.00533 225.062 10.328C225.766 11.6293 226.118 13.0373 226.118 14.552C226.118 15.1067 226.086 15.5867 226.022 15.992H213.062C213.169 17.2933 213.649 18.3173 214.502 19.064C215.377 19.8107 216.379 20.184 217.51 20.184C218.363 20.184 219.163 19.9813 219.91 19.576C220.678 19.1493 221.201 18.5947 221.478 17.912L225.158 18.936C224.539 20.216 223.547 21.272 222.182 22.104C220.817 22.9147 219.206 23.32 217.35 23.32ZM212.966 13.272H221.734C221.606 12.0133 221.126 11 220.294 10.232C219.483 9.44267 218.491 9.048 217.318 9.048C216.166 9.048 215.174 9.44267 214.342 10.232C213.531 11 213.073 12.0133 212.966 13.272ZM257.018 23H252.73V13.592C252.73 12.2693 252.495 11.2987 252.026 10.68C251.578 10.04 250.949 9.72 250.138 9.72C249.285 9.72 248.485 10.0507 247.738 10.712C246.991 11.352 246.458 12.1947 246.138 13.24V23H241.85V13.592C241.85 12.248 241.615 11.2667 241.146 10.648C240.698 10.0293 240.069 9.72 239.258 9.72C238.426 9.72 237.626 10.04 236.858 10.68C236.111 11.32 235.578 12.1627 235.258 13.208V23H230.97V6.232H234.842V9.336C235.461 8.248 236.303 7.416 237.37 6.84C238.458 6.24267 239.695 5.944 241.082 5.944C242.469 5.944 243.546 6.28533 244.314 6.968C245.103 7.65067 245.605 8.49333 245.818 9.496C246.479 8.344 247.343 7.46933 248.41 6.872C249.477 6.25333 250.671 5.944 251.994 5.944C253.039 5.944 253.882 6.136 254.522 6.52C255.183 6.88267 255.695 7.384 256.058 8.024C256.421 8.64267 256.666 9.34667 256.794 10.136C256.943 10.9253 257.018 11.7253 257.018 12.536V23Z" fill="white"/>
</svg>
